<svg xmlns="http://www.w3.org/2000/svg" enable-background="new 0 0 100 100" viewBox="0 0 100 100" id="Bottle"><path d="M54.521 8.068h-9.043c-.881 0-1.595-.688-1.595-1.534S44.597 5 45.479 5h9.043c.881 0 1.596.688 1.596 1.534S55.403 8.068 54.521 8.068zM62.5 41.439c0-5.146-3.398-9.527-8.156-11.185V9.603h-8.688v20.652c-4.757 1.657-8.156 6.038-8.156 11.185v50.242c0 .113.006.224.009.336 0 0-.186 2.982 1.853 2.982 2.039 0 19.238 0 21.278 0 2.039 0 1.853-2.982 1.853-2.982l0 0c.003-.112.008-.223.008-.336V41.439z" fill="#c96e12" class="color000000 svgShape"></path></svg>